<svg xmlns="http://www.w3.org/2000/svg" viewBox="0 0 308 424.32"><defs><style>.cls-1{fill:#6ae184;}.cls-2{fill:#389d9c;}.cls-3{fill:#426572;}.cls-4{fill:#a8ff8c;}.cls-5{fill:#32caf8;}.cls-6{fill:#00a3eb;}.cls-7{fill:#fff;}</style></defs><title>Asset 89</title><g id="Layer_2" data-name="Layer 2"><g id="Layer_1-2" data-name="Layer 1"><rect class="cls-1" x="6" y="6.95" width="296" height="412.32" rx="30.38" ry="30.38"/><path class="cls-2" d="M302,24.91,299,397a15.18,15.18,0,0,1-15.13,15.13l-256,5.84c-8.32,0-13-1.68-13-10L6,403.48c0-.16,26.33,9.8,26.49,9.8L267,403.19a15.18,15.18,0,0,0,15.13-15.13V13.57a3.78,3.78,0,0,1,3.78-3.78h.95A15.18,15.18,0,0,1,302,24.91Z"/><rect class="cls-3" x="69.98" y="9.78" width="12" height="408.54"/><rect class="cls-4" x="81.83" y="9.78" width="7" height="408.54"/><path class="cls-5" d="M130.83,11.67V121.33a4.52,4.52,0,0,0,7.71,3.2l26.29-26.29a4.52,4.52,0,0,1,6.39,0l26.61,26.61a4.52,4.52,0,0,0,7.71-3.2v-110"/><path class="cls-6" d="M202.7,10.73v110a4.52,4.52,0,0,1-7.72,3.2l-3.63-3.63V10.73Z"/><path class="cls-3" d="M201,132.17a10.49,10.49,0,0,1-7.43-3.09L168,103.53l-25.24,25.24a10.52,10.52,0,0,1-18-7.44V11.67h12V117.75L160.59,94a10.52,10.52,0,0,1,14.88,0l24.08,24.08V11.67h12v110A10.54,10.54,0,0,1,201,132.17Z"/><ellipse class="cls-7" cx="28.51" cy="46.09" rx="3.83" ry="19.09" transform="translate(-0.82 0.52) rotate(-1.03)"/><ellipse class="cls-7" cx="29.03" cy="83.47" rx="3.83" ry="9.55" transform="translate(-1.5 0.54) rotate(-1.03)"/><path class="cls-3" d="M268.71,424.32H39.29A39.33,39.33,0,0,1,0,385V39.29A39.33,39.33,0,0,1,39.29,0H268.71A39.33,39.33,0,0,1,308,39.29V385A39.33,39.33,0,0,1,268.71,424.32ZM39.29,12A27.32,27.32,0,0,0,12,39.29V385a27.32,27.32,0,0,0,27.29,27.29H268.71A27.32,27.32,0,0,0,296,385V39.29A27.32,27.32,0,0,0,268.71,12Z"/></g></g></svg>